<svg xmlns="http://www.w3.org/2000/svg" id="canvas" viewBox="288.932 418.165 1210.860 156.675"><path d="M 339.70,447.67 C 338.83 446.27, 337.63 445.65, 335.47 445.11 C 333.31 444.56, 331.71 444.49, 328.88 444.95 C 326.05 445.40, 324.39 446.28, 321.32 447.39 C 318.26 448.50, 316.65 449.19, 313.55 450.50 C 310.45 451.80, 308.62 452.31, 305.83 453.90 C 303.04 455.49, 301.69 456.34, 299.62 458.45 C 297.55 460.57, 296.57 461.89, 295.49 464.48 C 294.41 467.08, 293.99 468.57, 294.22 471.44 C 294.45 474.30, 294.88 476.18, 296.64 478.81 C 298.40 481.43, 299.86 482.58, 303.02 484.56 C 306.17 486.53, 308.30 487.03, 312.41 488.68 C 316.52 490.33, 318.77 491.07, 323.56 492.80 C 328.36 494.53, 331.18 495.27, 336.38 497.32 C 341.58 499.38, 344.48 500.68, 349.56 503.09 C 354.64 505.50, 357.29 506.85, 361.79 509.36 C 366.29 511.86, 368.64 513.06, 372.06 515.61 C 375.48 518.15, 376.86 519.67, 378.89 522.10 C 380.92 524.53, 381.40 525.84, 382.21 527.77 C 383.03 529.70, 383.28 530.25, 382.98 531.74 C 382.68 533.24, 382.09 533.64, 380.71 535.24 C 379.33 536.83, 378.65 537.89, 376.07 539.72 C 373.50 541.54, 371.60 542.73, 367.81 544.36 C 364.03 545.99, 361.68 546.83, 357.17 547.87 C 352.66 548.91, 350.13 549.35, 345.26 549.56 C 340.39 549.77, 337.61 549.51, 332.83 548.92 C 328.04 548.34, 325.54 547.85, 321.32 546.63 C 317.10 545.41, 314.99 544.56, 311.74 542.81 C 308.48 541.06, 307.04 539.81, 305.04 537.88 C 303.04 535.95, 302.49 535.02, 301.74 533.16 C 300.99 531.30, 301.07 530.59, 301.28 528.57 C 301.50 526.56, 301.71 525.41, 302.81 523.07 C 303.92 520.73, 304.75 519.43, 306.82 516.88 C 308.90 514.34, 310.24 512.86, 313.21 510.35 C 316.18 507.85, 317.94 506.65, 321.66 504.36 C 325.39 502.07, 327.66 500.90, 331.85 498.89 C 336.03 496.89, 338.30 495.94, 342.60 494.34 C 346.91 492.75, 349.17 491.99, 353.36 490.92 C 357.55 489.85, 359.73 489.41, 363.54 489.00 C 367.36 488.59, 369.24 488.69, 372.45 488.89 C 375.67 489.08, 377.13 489.34, 379.61 489.98 C 382.10 490.62, 383.03 491.07, 384.88 492.07 C 386.72 493.08, 387.59 493.67, 388.84 495.01 C 390.08 496.35, 390.47 496.91, 391.10 498.77 C 391.73 500.63, 391.59 501.81, 391.99 504.33 C 392.40 506.84, 392.71 508.52, 393.13 511.33 C 393.55 514.14, 393.69 515.63, 394.09 518.36 C 394.50 521.10, 394.57 522.52, 395.17 525.01 C 395.76 527.50, 396.03 529.10, 397.07 530.80 C 398.11 532.49, 399.25 532.86, 400.38 533.49 C 401.51 534.11, 401.88 534.06, 402.72 533.92 C 403.56 533.79, 404.02 533.41, 404.59 532.81 C 405.15 532.21, 405.21 531.88, 405.54 530.91 C 405.87 529.94, 406.21 529.51, 406.24 527.94 C 406.27 526.38, 405.94 525.29, 405.67 523.08 C 405.41 520.87, 405.23 519.54, 404.89 516.87 C 404.56 514.20, 404.42 512.69, 403.99 509.72 C 403.55 506.76, 403.49 505.04, 402.73 502.05 C 401.97 499.06, 401.58 497.52, 400.18 494.78 C 398.79 492.04, 397.96 490.58, 395.76 488.35 C 393.57 486.11, 392.10 485.02, 389.22 483.61 C 386.34 482.19, 384.70 481.78, 381.36 481.25 C 378.02 480.72, 376.29 480.83, 372.53 480.96 C 368.77 481.09, 366.74 481.20, 362.56 481.90 C 358.38 482.61, 356.06 483.21, 351.62 484.48 C 347.17 485.75, 344.85 486.56, 340.34 488.25 C 335.82 489.93, 333.49 490.88, 329.05 492.90 C 324.61 494.91, 322.24 496.03, 318.13 498.32 C 314.03 500.61, 312.04 501.76, 308.51 504.34 C 304.97 506.92, 303.26 508.29, 300.47 511.22 C 297.67 514.15, 296.24 515.63, 294.54 518.98 C 292.84 522.33, 292.10 524.40, 291.96 527.97 C 291.81 531.54, 292.25 533.64, 293.81 536.81 C 295.38 539.98, 296.82 541.37, 299.78 543.83 C 302.75 546.29, 304.67 547.32, 308.64 549.12 C 312.62 550.91, 314.96 551.63, 319.65 552.82 C 324.34 554.00, 326.94 554.43, 332.10 555.03 C 337.27 555.62, 340.19 555.89, 345.46 555.77 C 350.74 555.65, 353.48 555.29, 358.48 554.43 C 363.49 553.56, 366.04 552.92, 370.49 551.44 C 374.94 549.96, 377.18 549.09, 380.72 547.03 C 384.26 544.97, 386.08 543.97, 388.19 541.14 C 390.30 538.31, 390.90 536.24, 391.27 532.88 C 391.64 529.53, 391.43 527.52, 390.03 524.35 C 388.62 521.19, 387.11 519.86, 384.24 517.08 C 381.36 514.29, 379.60 512.98, 375.66 510.42 C 371.71 507.86, 369.26 506.77, 364.52 504.29 C 359.78 501.81, 357.15 500.49, 351.98 498.01 C 346.80 495.53, 343.83 494.16, 338.64 491.89 C 333.45 489.63, 330.60 488.75, 326.04 486.69 C 321.48 484.63, 319.33 483.62, 315.84 481.59 C 312.35 479.56, 310.82 478.31, 308.60 476.54 C 306.37 474.77, 305.87 474.00, 304.70 472.74 C 303.54 471.48, 303.06 471.11, 302.77 470.24 C 302.47 469.37, 302.56 469.26, 303.23 468.38 C 303.90 467.49, 304.59 466.87, 306.11 465.83 C 307.63 464.78, 308.59 464.29, 310.84 463.16 C 313.08 462.03, 314.61 461.17, 317.35 460.19 C 320.08 459.20, 321.69 458.86, 324.52 458.23 C 327.35 457.61, 329.08 457.73, 331.50 457.05 C 333.92 456.37, 334.95 455.83, 336.62 454.84 C 338.28 453.84, 339.19 453.52, 339.81 452.08 C 340.43 450.65, 340.56 449.06, 339.70 447.67" style="stroke: white; fill: white;"/><path d="M 383.44,436.82 C 384.99 436.26, 385.78 435.32, 385.70 434.45 C 385.61 433.58, 384.53 432.90, 383.02 432.47 C 381.51 432.04, 379.68 431.86, 378.14 432.31 C 376.60 432.75, 375.35 433.71, 375.32 434.70 C 375.28 435.68, 376.32 436.81, 377.94 437.24 C 379.57 437.66, 381.89 437.38, 383.44 436.82" style="stroke: white; fill: white;"/><path d="M 426.47,422.69 C 425.45 423.60, 425.43 424.11, 425.06 425.73 C 424.69 427.35, 424.17 428.28, 424.61 430.78 C 425.05 433.29, 426.20 434.91, 427.25 438.26 C 428.31 441.62, 428.99 443.51, 429.88 447.55 C 430.76 451.59, 430.90 453.81, 431.70 458.47 C 432.50 463.12, 433.10 465.77, 433.89 470.84 C 434.68 475.91, 434.97 478.53, 435.66 483.80 C 436.36 489.08, 436.80 491.89, 437.37 497.21 C 437.95 502.54, 438.12 505.31, 438.53 510.44 C 438.95 515.58, 439.12 518.21, 439.45 522.90 C 439.79 527.60, 439.89 530.10, 440.20 533.91 C 440.51 537.72, 440.33 539.47, 441.01 541.94 C 441.69 544.40, 442.64 545.05, 443.59 546.21 C 444.53 547.38, 444.87 547.58, 445.72 547.78 C 446.56 547.98, 447.17 547.78, 447.81 547.23 C 448.46 546.67, 448.58 546.37, 448.94 544.99 C 449.29 543.61, 449.85 542.74, 449.60 540.31 C 449.35 537.87, 448.44 536.45, 447.68 532.83 C 446.92 529.22, 446.47 526.81, 445.81 522.22 C 445.15 517.63, 444.92 515.02, 444.37 509.89 C 443.82 504.77, 443.64 501.96, 443.05 496.60 C 442.47 491.24, 442.06 488.41, 441.45 483.09 C 440.85 477.77, 440.62 475.10, 440.01 470.00 C 439.41 464.89, 438.89 462.27, 438.44 457.56 C 437.99 452.86, 438.00 450.68, 437.75 446.46 C 437.50 442.25, 437.39 440.17, 437.18 436.49 C 436.98 432.82, 437.46 430.78, 436.75 428.09 C 436.03 425.40, 434.92 424.43, 433.61 423.05 C 432.29 421.67, 431.61 421.24, 430.18 421.17 C 428.75 421.10, 427.50 421.78, 426.47 422.69" style="stroke: white; fill: white;"/><path d="M 468.69,526.78 C 470.06 527.47, 471.01 527.33, 473.00 526.83 C 475.00 526.34, 476.32 525.98, 478.67 524.31 C 481.01 522.63, 482.13 520.93, 484.75 518.45 C 487.36 515.97, 488.90 514.60, 491.74 511.89 C 494.58 509.18, 496.21 507.62, 498.94 504.91 C 501.67 502.21, 503.10 500.99, 505.39 498.36 C 507.68 495.73, 508.92 494.45, 510.40 491.77 C 511.88 489.09, 512.41 487.62, 512.79 484.95 C 513.16 482.27, 512.98 480.85, 512.27 478.39 C 511.57 475.94, 511.07 474.63, 509.27 472.66 C 507.46 470.70, 506.09 469.59, 503.24 468.58 C 500.39 467.57, 498.34 467.18, 495.00 467.62 C 491.66 468.06, 489.87 469.10, 486.53 470.78 C 483.18 472.45, 481.44 473.58, 478.29 476.00 C 475.14 478.41, 473.45 479.78, 470.77 482.87 C 468.10 485.97, 466.76 487.87, 464.92 491.47 C 463.08 495.07, 462.27 496.98, 461.56 500.87 C 460.84 504.77, 460.66 506.96, 461.34 510.94 C 462.02 514.91, 462.81 517.14, 464.95 520.74 C 467.08 524.35, 468.67 526.07, 472.03 528.95 C 475.38 531.83, 477.44 533.11, 481.71 535.14 C 485.99 537.17, 488.58 538.03, 493.40 539.10 C 498.23 540.17, 500.89 540.34, 505.84 540.48 C 510.79 540.62, 513.31 540.51, 518.14 539.80 C 522.96 539.08, 525.47 538.41, 529.97 536.90 C 534.48 535.39, 536.70 534.40, 540.67 532.26 C 544.64 530.12, 546.52 528.91, 549.82 526.21 C 553.11 523.50, 554.66 521.95, 557.13 518.73 C 559.60 515.51, 560.49 513.52, 562.18 510.09 C 563.86 506.65, 564.64 504.81, 565.56 501.56 C 566.49 498.30, 567.00 496.46, 566.79 493.82 C 566.59 491.17, 565.97 489.56, 564.55 488.35 C 563.13 487.13, 561.34 486.98, 559.69 487.74 C 558.04 488.50, 556.85 489.86, 556.31 492.15 C 555.77 494.44, 556.08 496.13, 557.00 499.19 C 557.92 502.26, 559.33 504.04, 560.92 507.47 C 562.51 510.89, 563.38 512.90, 564.94 516.31 C 566.50 519.72, 567.28 521.35, 568.71 524.53 C 570.13 527.70, 570.55 529.57, 572.05 532.20 C 573.55 534.84, 574.41 536.21, 576.22 537.72 C 578.03 539.23, 579.24 539.75, 581.12 539.76 C 583.00 539.77, 584.20 538.95, 585.62 537.78 C 587.04 536.62, 587.56 535.65, 588.23 533.92 C 588.90 532.19, 589.14 531.38, 588.98 529.13 C 588.81 526.88, 588.11 525.41, 587.43 522.67 C 586.75 519.93, 586.01 518.38, 585.59 515.45 C 585.17 512.51, 585.24 510.97, 585.31 508.00 C 585.38 505.04, 585.51 503.35, 585.95 500.62 C 586.38 497.88, 586.61 496.60, 587.49 494.32 C 588.36 492.03, 589.00 491.10, 590.33 489.19 C 591.67 487.28, 592.51 486.23, 594.16 484.76 C 595.81 483.30, 596.55 482.71, 598.58 481.87 C 600.60 481.02, 602.06 480.88, 604.29 480.55 C 606.53 480.23, 607.69 480.00, 609.75 480.25 C 611.81 480.50, 612.62 480.78, 614.58 481.79 C 616.55 482.80, 617.66 483.47, 619.57 485.32 C 621.48 487.17, 622.44 488.37, 624.15 491.04 C 625.85 493.72, 626.74 495.46, 628.09 498.71 C 629.45 501.95, 629.90 503.78, 630.93 507.27 C 631.96 510.76, 632.42 512.58, 633.24 516.16 C 634.07 519.74, 634.39 521.66, 635.06 525.15 C 635.72 528.64, 635.63 530.51, 636.57 533.61 C 637.50 536.70, 638.20 538.31, 639.74 540.63 C 641.29 542.94, 642.52 544.03, 644.29 545.16 C 646.06 546.30, 647.13 546.18, 648.59 546.29 C 650.05 546.40, 650.74 546.12, 651.60 545.72 C 652.45 545.32, 652.96 545.20, 652.87 544.29 C 652.78 543.37, 651.66 541.83, 651.15 541.15 C 650.64 540.46, 650.42 541.01, 650.32 540.86 C 650.22 540.71, 650.70 540.82, 650.65 540.40 C 650.60 539.98, 650.61 539.74, 650.07 538.78 C 649.53 537.82, 648.82 537.25, 647.96 535.62 C 647.09 533.98, 646.64 533.09, 645.76 530.60 C 644.87 528.12, 644.44 526.46, 643.52 523.18 C 642.60 519.90, 642.13 517.83, 641.17 514.20 C 640.22 510.57, 639.79 508.73, 638.74 505.02 C 637.69 501.30, 637.31 499.33, 635.93 495.62 C 634.55 491.91, 633.74 489.85, 631.84 486.47 C 629.93 483.08, 628.90 481.39, 626.41 478.69 C 623.91 475.99, 622.37 474.65, 619.35 472.97 C 616.33 471.29, 614.58 470.88, 611.30 470.30 C 608.02 469.72, 606.34 469.67, 602.96 470.05 C 599.58 470.44, 597.51 470.84, 594.38 472.25 C 591.25 473.66, 589.80 474.86, 587.30 477.11 C 584.80 479.36, 583.72 480.73, 581.90 483.49 C 580.08 486.25, 579.30 487.79, 578.20 490.91 C 577.09 494.03, 576.90 495.78, 576.38 499.10 C 575.85 502.42, 575.83 504.12, 575.57 507.50 C 575.31 510.88, 575.17 512.61, 575.08 516.01 C 575.00 519.40, 574.96 521.39, 575.14 524.48 C 575.32 527.56, 575.33 529.17, 575.98 531.45 C 576.62 533.72, 577.14 534.74, 578.36 535.83 C 579.58 536.93, 580.89 537.09, 582.07 536.91 C 583.25 536.72, 583.97 535.92, 584.26 534.91 C 584.56 533.89, 584.21 533.41, 583.54 531.84 C 582.87 530.26, 582.28 529.31, 580.93 527.05 C 579.59 524.78, 578.37 523.37, 576.82 520.52 C 575.27 517.68, 574.46 516.08, 573.18 512.81 C 571.89 509.54, 571.18 507.56, 570.39 504.16 C 569.60 500.77, 569.93 498.65, 569.23 495.82 C 568.52 492.99, 568.22 491.68, 566.88 490.01 C 565.53 488.33, 564.26 487.65, 562.50 487.43 C 560.75 487.21, 559.31 487.70, 558.10 488.90 C 556.88 490.11, 556.80 491.34, 556.44 493.45 C 556.07 495.57, 556.65 496.83, 556.26 499.49 C 555.87 502.15, 555.54 503.81, 554.47 506.76 C 553.40 509.71, 552.76 511.45, 550.90 514.24 C 549.04 517.04, 547.86 518.33, 545.15 520.73 C 542.44 523.14, 540.81 524.28, 537.35 526.27 C 533.88 528.27, 531.87 529.26, 527.83 530.69 C 523.80 532.13, 521.54 532.79, 517.18 533.45 C 512.83 534.11, 510.51 534.18, 506.06 534.00 C 501.61 533.82, 499.17 533.59, 494.93 532.55 C 490.68 531.51, 488.42 530.65, 484.84 528.80 C 481.26 526.95, 479.63 525.73, 477.03 523.32 C 474.44 520.91, 473.38 519.49, 471.86 516.75 C 470.34 514.01, 469.86 512.49, 469.42 509.62 C 468.98 506.75, 469.10 505.28, 469.67 502.42 C 470.24 499.56, 470.79 498.09, 472.28 495.31 C 473.76 492.54, 474.86 490.94, 477.11 488.56 C 479.35 486.18, 480.80 485.09, 483.50 483.40 C 486.19 481.71, 487.98 481.00, 490.58 480.10 C 493.18 479.19, 494.49 479.13, 496.48 478.86 C 498.48 478.60, 499.23 478.69, 500.56 478.78 C 501.90 478.87, 502.40 478.92, 503.15 479.31 C 503.90 479.70, 504.07 479.95, 504.30 480.72 C 504.54 481.49, 504.79 481.92, 504.34 483.16 C 503.88 484.39, 503.23 485.00, 502.04 486.90 C 500.85 488.80, 500.23 490.24, 498.40 492.64 C 496.58 495.04, 495.42 496.37, 492.92 498.89 C 490.42 501.42, 488.79 502.94, 485.91 505.27 C 483.03 507.59, 481.41 508.66, 478.51 510.52 C 475.61 512.37, 473.63 512.80, 471.39 514.54 C 469.16 516.28, 468.38 517.43, 467.33 519.20 C 466.28 520.97, 465.87 521.88, 466.14 523.40 C 466.41 524.91, 467.31 526.09, 468.69 526.78" style="stroke: white; fill: white;"/><path d="M 670.01,444.95 C 668.67 445.62, 668.15 446.46, 667.55 448.13 C 666.96 449.80, 666.87 450.94, 667.03 453.30 C 667.19 455.67, 667.49 457.18, 668.37 459.94 C 669.26 462.71, 670.37 464.04, 671.46 467.12 C 672.56 470.20, 673.05 471.83, 673.84 475.35 C 674.64 478.86, 674.87 480.72, 675.44 484.70 C 676.00 488.69, 676.20 490.98, 676.67 495.28 C 677.14 499.58, 677.44 501.86, 677.78 506.21 C 678.13 510.56, 678.15 512.76, 678.39 517.02 C 678.63 521.29, 678.71 523.51, 678.99 527.52 C 679.26 531.54, 679.51 533.59, 679.76 537.09 C 680.01 540.60, 679.70 542.40, 680.22 545.04 C 680.75 547.67, 681.49 548.66, 682.38 550.28 C 683.28 551.90, 683.62 552.63, 684.69 553.14 C 685.77 553.65, 686.80 553.60, 687.74 552.84 C 688.69 552.08, 689.01 551.18, 689.44 549.33 C 689.86 547.48, 690.14 546.27, 689.88 543.60 C 689.61 540.92, 688.78 539.32, 688.09 535.96 C 687.41 532.59, 686.96 530.65, 686.43 526.77 C 685.90 522.88, 685.77 520.77, 685.45 516.55 C 685.12 512.34, 685.12 510.07, 684.81 505.68 C 684.50 501.29, 684.24 498.97, 683.90 494.60 C 683.56 490.24, 683.45 487.99, 683.13 483.86 C 682.80 479.73, 682.68 477.76, 682.28 473.97 C 681.87 470.17, 681.52 468.23, 681.11 464.87 C 680.71 461.51, 680.66 459.94, 680.26 457.17 C 679.85 454.40, 679.76 453.08, 679.09 451.03 C 678.42 448.98, 677.89 448.17, 676.92 446.92 C 675.94 445.67, 675.61 445.16, 674.23 444.76 C 672.85 444.37, 671.34 444.28, 670.01 444.95" style="stroke: white; fill: white;"/><path d="M 657.36,503.42 C 658.57 504.64, 660.01 505.29, 662.92 505.31 C 665.83 505.34, 667.76 504.28, 671.93 503.55 C 676.09 502.82, 678.68 502.24, 683.72 501.65 C 688.77 501.06, 692.05 500.99, 697.13 500.60 C 702.22 500.21, 705.15 500.20, 709.15 499.71 C 713.15 499.23, 715.56 499.24, 717.14 498.17 C 718.72 497.10, 718.70 495.35, 717.04 494.36 C 715.38 493.37, 712.91 493.33, 708.84 493.23 C 704.78 493.13, 701.85 493.60, 696.70 493.86 C 691.56 494.12, 688.25 494.24, 683.10 494.55 C 677.94 494.87, 675.20 495.12, 670.93 495.42 C 666.66 495.71, 664.56 495.28, 661.74 496.04 C 658.92 496.80, 657.72 497.72, 656.85 499.20 C 655.97 500.68, 656.14 502.20, 657.36 503.42" style="stroke: white; fill: white;"/><path d="M 888.83,489.01 C 888.99 487.36, 888.27 486.03, 886.76 484.46 C 885.24 482.89, 884.02 482.08, 881.26 481.17 C 878.51 480.26, 876.49 479.86, 873.00 479.92 C 869.51 479.98, 867.52 480.68, 863.83 481.48 C 860.13 482.29, 858.18 482.88, 854.54 483.94 C 850.90 485.01, 848.90 485.35, 845.63 486.80 C 842.37 488.24, 840.60 488.94, 838.22 491.16 C 835.85 493.37, 834.73 494.98, 833.76 497.88 C 832.79 500.78, 832.61 502.63, 833.36 505.66 C 834.12 508.69, 835.00 510.60, 837.54 513.03 C 840.09 515.46, 842.12 516.01, 846.08 517.79 C 850.03 519.58, 852.43 520.23, 857.33 521.96 C 862.22 523.70, 865.12 524.56, 870.54 526.46 C 875.97 528.37, 879.04 529.37, 884.47 531.51 C 889.89 533.64, 892.85 534.87, 897.66 537.12 C 902.48 539.38, 904.81 540.45, 908.55 542.77 C 912.28 545.10, 913.88 546.66, 916.34 548.76 C 918.81 550.86, 919.69 552.02, 920.87 553.27 C 922.04 554.52, 922.31 554.38, 922.20 555.00 C 922.09 555.62, 921.45 555.81, 920.32 556.36 C 919.19 556.90, 918.52 556.96, 916.55 557.72 C 914.58 558.49, 913.58 559.39, 910.49 560.19 C 907.39 560.99, 905.34 561.51, 901.08 561.72 C 896.83 561.93, 894.15 561.66, 889.21 561.24 C 884.27 560.82, 881.47 560.52, 876.38 559.62 C 871.29 558.73, 868.62 558.11, 863.77 556.77 C 858.92 555.43, 856.29 554.69, 852.15 552.92 C 848.01 551.15, 845.98 549.90, 843.07 547.90 C 840.16 545.91, 839.34 544.68, 837.60 542.97 C 835.85 541.26, 835.38 540.36, 834.34 539.35 C 833.30 538.34, 832.92 538.45, 832.39 537.92 C 831.86 537.38, 832.39 537.12, 831.70 536.67 C 831.00 536.22, 829.89 535.29, 828.90 535.67 C 827.91 536.04, 827.03 536.95, 826.73 538.54 C 826.44 540.13, 826.47 541.42, 827.42 543.63 C 828.37 545.84, 829.09 547.47, 831.49 549.58 C 833.88 551.70, 835.72 552.34, 839.39 554.20 C 843.05 556.06, 845.23 557.20, 849.80 558.87 C 854.36 560.54, 857.12 561.21, 862.21 562.55 C 867.30 563.89, 870.01 564.53, 875.27 565.57 C 880.52 566.62, 883.32 567.04, 888.47 567.77 C 893.62 568.51, 896.33 568.97, 901.02 569.25 C 905.71 569.53, 907.95 569.49, 911.90 569.18 C 915.86 568.87, 917.79 569.05, 920.79 567.70 C 923.80 566.35, 925.29 564.91, 926.93 562.43 C 928.58 559.95, 928.97 558.08, 929.02 555.31 C 929.07 552.55, 928.77 551.10, 927.16 548.60 C 925.55 546.10, 924.09 545.06, 920.98 542.81 C 917.87 540.56, 915.81 539.51, 911.61 537.35 C 907.41 535.19, 905.00 534.19, 899.98 532.00 C 894.96 529.81, 891.98 528.58, 886.51 526.38 C 881.03 524.17, 877.94 523.11, 872.61 520.97 C 867.28 518.84, 864.39 517.80, 859.86 515.71 C 855.34 513.62, 853.08 512.53, 849.98 510.53 C 846.88 508.52, 846.07 507.21, 844.34 505.68 C 842.62 504.16, 841.95 503.84, 841.35 502.91 C 840.75 501.99, 840.73 501.93, 841.34 501.07 C 841.95 500.20, 842.77 499.71, 844.41 498.58 C 846.04 497.46, 846.98 496.60, 849.51 495.44 C 852.04 494.28, 853.87 493.67, 857.05 492.80 C 860.24 491.93, 862.32 491.41, 865.43 491.08 C 868.54 490.75, 870.03 490.86, 872.60 491.13 C 875.17 491.41, 876.34 492.13, 878.29 492.46 C 880.24 492.79, 880.82 492.74, 882.36 492.79 C 883.89 492.83, 884.67 493.43, 885.96 492.67 C 887.26 491.92, 888.67 490.65, 888.83 489.01" style="stroke: white; fill: white;"/><path d="M 942.57,498.11 C 941.12 498.16, 940.45 498.70, 939.26 500.06 C 938.08 501.43, 937.13 502.49, 936.63 504.94 C 936.14 507.39, 936.35 509.39, 936.78 512.30 C 937.20 515.22, 937.83 516.49, 938.75 519.52 C 939.67 522.54, 940.12 524.23, 941.37 527.43 C 942.63 530.63, 943.35 532.44, 945.01 535.50 C 946.68 538.57, 947.72 540.09, 949.70 542.76 C 951.69 545.44, 952.63 546.72, 954.93 548.87 C 957.22 551.03, 958.57 551.97, 961.19 553.54 C 963.80 555.10, 965.13 555.83, 967.99 556.71 C 970.85 557.58, 972.52 557.89, 975.49 557.91 C 978.46 557.94, 980.01 557.60, 982.85 556.83 C 985.69 556.07, 987.06 555.52, 989.71 554.08 C 992.35 552.64, 993.75 551.70, 996.07 549.63 C 998.40 547.56, 999.39 546.27, 1001.33 543.74 C 1003.27 541.22, 1004.20 539.84, 1005.76 536.98 C 1007.33 534.13, 1007.97 532.43, 1009.14 529.46 C 1010.31 526.48, 1010.80 525.01, 1011.62 522.12 C 1012.43 519.23, 1012.73 517.69, 1013.22 515.01 C 1013.70 512.34, 1014.07 510.94, 1014.04 508.74 C 1014.01 506.54, 1014.03 505.31, 1013.06 504.02 C 1012.08 502.74, 1010.76 502.23, 1009.18 502.31 C 1007.60 502.38, 1006.27 502.96, 1005.16 504.38 C 1004.04 505.81, 1003.64 506.97, 1003.60 509.45 C 1003.56 511.92, 1004.17 513.49, 1004.96 516.77 C 1005.74 520.05, 1006.37 522.30, 1007.51 525.85 C 1008.66 529.40, 1009.40 531.13, 1010.68 534.53 C 1011.95 537.92, 1012.47 539.64, 1013.90 542.83 C 1015.33 546.03, 1016.12 547.83, 1017.83 550.51 C 1019.54 553.20, 1020.54 554.55, 1022.44 556.26 C 1024.33 557.96, 1025.61 558.48, 1027.33 559.04 C 1029.04 559.60, 1029.95 559.54, 1031.03 559.05 C 1032.11 558.56, 1032.51 557.67, 1032.71 556.58 C 1032.90 555.49, 1032.55 554.98, 1031.99 553.60 C 1031.44 552.21, 1031.09 551.39, 1029.93 549.63 C 1028.78 547.88, 1027.79 547.00, 1026.23 544.84 C 1024.66 542.68, 1023.53 541.52, 1022.12 538.85 C 1020.71 536.18, 1020.22 534.56, 1019.19 531.49 C 1018.16 528.43, 1017.51 526.79, 1016.98 523.53 C 1016.46 520.26, 1016.65 518.23, 1016.56 515.18 C 1016.47 512.12, 1017.01 510.60, 1016.53 508.26 C 1016.05 505.93, 1015.54 504.84, 1014.15 503.50 C 1012.76 502.16, 1011.38 501.60, 1009.59 501.55 C 1007.79 501.51, 1006.37 502.05, 1005.16 503.28 C 1003.95 504.50, 1004.00 505.70, 1003.54 507.66 C 1003.08 509.62, 1003.31 510.77, 1002.86 513.09 C 1002.42 515.41, 1002.00 516.74, 1001.32 519.27 C 1000.63 521.80, 1000.38 523.23, 999.45 525.75 C 998.52 528.27, 997.98 529.60, 996.67 531.87 C 995.35 534.14, 994.44 535.15, 992.87 537.10 C 991.29 539.05, 990.47 540.04, 988.79 541.60 C 987.12 543.16, 986.25 543.83, 984.49 544.90 C 982.72 545.96, 981.78 546.35, 979.98 546.93 C 978.17 547.51, 977.26 547.77, 975.46 547.81 C 973.66 547.85, 972.78 547.71, 970.97 547.14 C 969.17 546.56, 968.27 546.06, 966.44 544.92 C 964.62 543.78, 963.61 543.04, 961.84 541.42 C 960.08 539.80, 959.23 538.94, 957.60 536.82 C 955.98 534.70, 955.07 533.36, 953.73 530.82 C 952.39 528.29, 951.69 526.86, 950.89 524.13 C 950.09 521.41, 950.00 519.80, 949.73 517.19 C 949.45 514.58, 949.60 513.41, 949.51 511.07 C 949.43 508.72, 949.62 507.22, 949.29 505.45 C 948.97 503.68, 948.44 503.34, 947.88 502.22 C 947.32 501.09, 947.54 500.64, 946.48 499.82 C 945.41 499.00, 944.01 498.06, 942.57 498.11" style="stroke: white; fill: white;"/><path d="M 1049.80,500.06 C 1048.40 500.97, 1047.91 502.21, 1047.25 504.49 C 1046.59 506.78, 1046.53 508.28, 1046.51 511.48 C 1046.48 514.68, 1046.88 516.92, 1047.13 520.49 C 1047.37 524.05, 1047.48 525.74, 1047.72 529.31 C 1047.96 532.88, 1048.08 534.90, 1048.33 538.33 C 1048.58 541.75, 1048.51 543.55, 1048.97 546.45 C 1049.43 549.36, 1049.54 550.86, 1050.64 552.83 C 1051.75 554.81, 1052.68 555.80, 1054.50 556.32 C 1056.32 556.85, 1057.99 556.52, 1059.75 555.47 C 1061.51 554.42, 1062.45 553.25, 1063.29 551.08 C 1064.13 548.91, 1064.02 547.43, 1063.94 544.62 C 1063.86 541.81, 1063.01 540.17, 1062.88 537.05 C 1062.75 533.94, 1062.93 532.15, 1063.30 529.05 C 1063.67 525.96, 1063.88 524.51, 1064.74 521.58 C 1065.59 518.66, 1066.29 517.13, 1067.58 514.43 C 1068.87 511.73, 1069.97 510.25, 1071.18 508.07 C 1072.40 505.88, 1072.60 504.94, 1073.67 503.51 C 1074.74 502.07, 1075.46 501.56, 1076.54 500.87 C 1077.63 500.19, 1078.09 500.05, 1079.10 500.07 C 1080.11 500.08, 1080.50 500.26, 1081.58 500.95 C 1082.66 501.64, 1083.27 502.16, 1084.50 503.51 C 1085.74 504.87, 1086.42 505.84, 1087.74 507.71 C 1089.07 509.57, 1089.94 510.57, 1091.12 512.84 C 1092.31 515.12, 1092.75 516.30, 1093.67 519.08 C 1094.60 521.86, 1095.12 523.63, 1095.74 526.75 C 1096.36 529.86, 1096.55 531.66, 1096.78 534.66 C 1097.01 537.67, 1096.38 539.15, 1096.90 541.78 C 1097.41 544.40, 1097.75 546.20, 1099.36 547.80 C 1100.97 549.39, 1102.77 549.89, 1104.94 549.76 C 1107.11 549.63, 1108.44 548.77, 1110.20 547.14 C 1111.96 545.51, 1112.77 544.31, 1113.74 541.63 C 1114.71 538.94, 1114.33 536.94, 1115.06 533.74 C 1115.78 530.53, 1116.24 528.77, 1117.37 525.59 C 1118.50 522.41, 1119.14 520.74, 1120.70 517.84 C 1122.26 514.94, 1123.23 513.53, 1125.15 511.08 C 1127.08 508.63, 1128.27 507.44, 1130.32 505.58 C 1132.37 503.72, 1133.39 503.01, 1135.38 501.77 C 1137.38 500.53, 1138.45 500.04, 1140.31 499.37 C 1142.17 498.70, 1143.05 498.36, 1144.67 498.43 C 1146.30 498.51, 1146.89 498.81, 1148.41 499.75 C 1149.94 500.69, 1150.71 501.44, 1152.28 503.13 C 1153.86 504.82, 1154.74 505.75, 1156.30 508.19 C 1157.87 510.63, 1158.78 512.33, 1160.11 515.34 C 1161.44 518.35, 1161.97 520.07, 1162.95 523.24 C 1163.94 526.40, 1164.28 527.90, 1165.05 531.15 C 1165.81 534.40, 1166.09 536.34, 1166.76 539.49 C 1167.44 542.64, 1167.48 544.37, 1168.42 546.92 C 1169.35 549.47, 1170.07 550.64, 1171.43 552.23 C 1172.78 553.81, 1173.83 554.65, 1175.19 554.85 C 1176.56 555.05, 1177.58 554.31, 1178.27 553.22 C 1178.95 552.13, 1178.62 551.23, 1178.63 549.39 C 1178.64 547.56, 1178.84 546.52, 1178.32 544.05 C 1177.80 541.59, 1176.98 540.09, 1176.04 537.07 C 1175.10 534.04, 1174.54 532.21, 1173.62 528.93 C 1172.69 525.66, 1172.41 524.10, 1171.41 520.68 C 1170.41 517.26, 1169.96 515.33, 1168.62 511.84 C 1167.28 508.35, 1166.45 506.42, 1164.71 503.24 C 1162.97 500.07, 1162.25 498.43, 1159.92 495.96 C 1157.60 493.49, 1156.03 492.31, 1153.08 490.89 C 1150.13 489.48, 1148.35 489.06, 1145.20 488.88 C 1142.04 488.70, 1140.33 489.06, 1137.29 489.97 C 1134.25 490.88, 1132.68 491.63, 1129.98 493.42 C 1127.29 495.21, 1126.21 496.46, 1123.82 498.93 C 1121.44 501.39, 1120.23 502.79, 1118.07 505.73 C 1115.92 508.67, 1114.88 510.37, 1113.05 513.63 C 1111.22 516.90, 1110.50 518.74, 1108.91 522.04 C 1107.32 525.34, 1106.64 527.06, 1105.09 530.13 C 1103.55 533.19, 1102.04 534.67, 1101.19 537.36 C 1100.34 540.05, 1100.41 541.66, 1100.82 543.56 C 1101.24 545.46, 1102.14 546.39, 1103.25 546.87 C 1104.37 547.36, 1105.51 547.19, 1106.39 545.98 C 1107.28 544.78, 1107.61 543.34, 1107.68 540.84 C 1107.75 538.34, 1107.25 536.70, 1106.75 533.49 C 1106.25 530.28, 1105.92 528.23, 1105.17 524.79 C 1104.43 521.34, 1103.92 519.52, 1103.04 516.28 C 1102.16 513.04, 1101.93 511.62, 1100.79 508.59 C 1099.65 505.57, 1099.11 503.86, 1097.33 501.17 C 1095.55 498.49, 1094.30 497.03, 1091.90 495.16 C 1089.50 493.29, 1087.97 492.66, 1085.31 491.82 C 1082.66 490.98, 1081.26 490.74, 1078.61 490.96 C 1075.95 491.17, 1074.45 491.62, 1072.05 492.89 C 1069.66 494.16, 1068.61 495.29, 1066.64 497.30 C 1064.67 499.31, 1063.78 500.25, 1062.21 502.92 C 1060.64 505.59, 1060.05 507.43, 1058.79 510.66 C 1057.54 513.88, 1056.91 515.67, 1055.94 519.03 C 1054.97 522.39, 1054.69 524.06, 1053.96 527.47 C 1053.23 530.89, 1052.99 532.76, 1052.29 536.12 C 1051.59 539.48, 1050.70 541.32, 1050.47 544.27 C 1050.24 547.22, 1050.36 548.84, 1051.13 550.87 C 1051.89 552.91, 1052.88 553.72, 1054.30 554.43 C 1055.72 555.15, 1057.06 555.19, 1058.24 554.43 C 1059.41 553.68, 1059.96 552.65, 1060.17 550.68 C 1060.39 548.71, 1059.86 547.26, 1059.31 544.58 C 1058.76 541.90, 1057.95 540.41, 1057.43 537.26 C 1056.92 534.12, 1056.83 532.25, 1056.73 528.87 C 1056.64 525.50, 1056.78 523.84, 1056.94 520.38 C 1057.11 516.91, 1057.53 514.74, 1057.56 511.56 C 1057.58 508.38, 1057.71 506.82, 1057.05 504.49 C 1056.39 502.17, 1055.71 500.83, 1054.26 499.94 C 1052.81 499.05, 1051.20 499.14, 1049.80 500.06" style="stroke: white; fill: white;"/><path d="M 1191.15,489.14 C 1190.01 490.00, 1189.83 490.63, 1189.39 492.23 C 1188.94 493.84, 1188.68 494.86, 1188.94 497.16 C 1189.19 499.46, 1189.87 500.89, 1190.65 503.73 C 1191.44 506.57, 1192.14 508.08, 1192.87 511.37 C 1193.60 514.67, 1193.81 516.73, 1194.29 520.21 C 1194.77 523.68, 1194.88 525.38, 1195.27 528.72 C 1195.65 532.07, 1195.85 533.85, 1196.22 536.92 C 1196.58 539.98, 1196.54 541.66, 1197.10 544.07 C 1197.66 546.48, 1197.98 547.61, 1199.02 548.95 C 1200.06 550.29, 1200.77 550.67, 1202.30 550.78 C 1203.83 550.90, 1205.26 550.72, 1206.66 549.52 C 1208.07 548.32, 1209.09 547.08, 1209.31 544.79 C 1209.53 542.51, 1208.34 541.02, 1207.76 538.10 C 1207.17 535.18, 1206.57 533.53, 1206.39 530.20 C 1206.20 526.87, 1206.38 524.96, 1206.82 521.46 C 1207.26 517.97, 1207.66 516.15, 1208.58 512.73 C 1209.50 509.31, 1210.17 507.55, 1211.43 504.35 C 1212.68 501.16, 1213.23 499.41, 1214.86 496.77 C 1216.48 494.13, 1217.43 493.00, 1219.54 491.15 C 1221.66 489.30, 1223.01 488.57, 1225.44 487.53 C 1227.86 486.49, 1229.30 486.22, 1231.67 485.96 C 1234.04 485.71, 1235.14 485.76, 1237.28 486.27 C 1239.42 486.78, 1240.46 487.21, 1242.37 488.53 C 1244.27 489.86, 1245.21 490.71, 1246.80 492.90 C 1248.40 495.09, 1249.04 496.51, 1250.34 499.47 C 1251.64 502.42, 1252.31 504.13, 1253.30 507.68 C 1254.28 511.23, 1254.65 513.38, 1255.26 517.21 C 1255.87 521.04, 1256.14 523.22, 1256.35 526.82 C 1256.57 530.42, 1256.32 532.13, 1256.34 535.21 C 1256.35 538.28, 1255.87 539.91, 1256.42 542.19 C 1256.97 544.47, 1257.58 545.56, 1259.08 546.60 C 1260.57 547.65, 1262.00 547.85, 1263.90 547.41 C 1265.80 546.97, 1267.19 546.24, 1268.56 544.41 C 1269.93 542.58, 1270.43 541.02, 1270.75 538.26 C 1271.06 535.49, 1270.03 533.71, 1270.12 530.58 C 1270.22 527.44, 1270.40 525.73, 1271.22 522.57 C 1272.04 519.41, 1272.85 517.84, 1274.22 514.78 C 1275.59 511.71, 1276.32 510.03, 1278.06 507.24 C 1279.80 504.45, 1280.81 503.03, 1282.92 500.84 C 1285.03 498.65, 1286.54 497.85, 1288.62 496.28 C 1290.69 494.72, 1291.59 493.91, 1293.30 493.01 C 1295.02 492.12, 1295.70 491.92, 1297.20 491.82 C 1298.69 491.72, 1299.45 491.92, 1300.78 492.53 C 1302.11 493.14, 1302.65 493.61, 1303.84 494.86 C 1305.02 496.10, 1305.59 496.85, 1306.71 498.75 C 1307.84 500.65, 1308.39 501.72, 1309.47 504.37 C 1310.55 507.02, 1311.20 508.73, 1312.12 511.99 C 1313.04 515.25, 1313.34 517.15, 1314.05 520.68 C 1314.77 524.21, 1315.00 526.11, 1315.69 529.64 C 1316.37 533.16, 1316.53 535.06, 1317.48 538.30 C 1318.42 541.55, 1318.95 543.26, 1320.41 545.84 C 1321.88 548.42, 1322.70 549.44, 1324.81 551.20 C 1326.92 552.96, 1328.56 554.51, 1330.98 554.66 C 1333.39 554.81, 1335.97 553.49, 1336.89 551.94 C 1337.81 550.40, 1336.53 547.97, 1335.57 546.92 C 1334.61 545.86, 1333.02 546.99, 1332.10 546.67 C 1331.18 546.35, 1331.57 546.39, 1330.98 545.32 C 1330.39 544.24, 1330.05 543.28, 1329.14 541.30 C 1328.23 539.32, 1327.41 538.10, 1326.44 535.41 C 1325.46 532.71, 1325.02 531.10, 1324.26 527.82 C 1323.51 524.55, 1323.31 522.64, 1322.67 519.04 C 1322.03 515.44, 1321.82 513.42, 1321.06 509.81 C 1320.31 506.21, 1319.94 504.31, 1318.90 501.02 C 1317.87 497.72, 1317.53 496.08, 1315.90 493.32 C 1314.28 490.57, 1313.15 489.23, 1310.79 487.24 C 1308.44 485.25, 1307.00 484.30, 1304.14 483.38 C 1301.28 482.45, 1299.47 482.37, 1296.51 482.60 C 1293.55 482.84, 1292.10 483.35, 1289.34 484.55 C 1286.57 485.76, 1285.32 486.57, 1282.70 488.63 C 1280.08 490.70, 1278.64 492.05, 1276.26 494.88 C 1273.87 497.70, 1272.75 499.52, 1270.78 502.78 C 1268.82 506.03, 1268.08 507.74, 1266.43 511.13 C 1264.78 514.52, 1263.89 516.22, 1262.52 519.72 C 1261.16 523.22, 1260.70 525.29, 1259.60 528.64 C 1258.50 531.99, 1257.43 533.67, 1257.02 536.48 C 1256.61 539.28, 1256.76 540.82, 1257.55 542.67 C 1258.34 544.52, 1259.62 545.21, 1260.97 545.71 C 1262.32 546.21, 1263.32 545.99, 1264.31 545.17 C 1265.30 544.35, 1265.62 543.69, 1265.90 541.61 C 1266.18 539.53, 1265.97 537.91, 1265.71 534.79 C 1265.45 531.67, 1265.11 529.78, 1264.60 526.01 C 1264.09 522.24, 1263.85 519.99, 1263.16 515.92 C 1262.48 511.84, 1262.14 509.57, 1261.18 505.63 C 1260.21 501.69, 1259.69 499.83, 1258.33 496.23 C 1256.97 492.63, 1256.45 490.73, 1254.37 487.63 C 1252.29 484.53, 1250.88 482.88, 1247.91 480.74 C 1244.94 478.60, 1242.99 477.76, 1239.52 476.93 C 1236.04 476.10, 1234.10 476.12, 1230.52 476.60 C 1226.95 477.08, 1225.00 477.68, 1221.64 479.31 C 1218.28 480.94, 1216.50 482.14, 1213.72 484.77 C 1210.93 487.39, 1209.69 489.12, 1207.71 492.44 C 1205.73 495.77, 1205.20 497.76, 1203.81 501.38 C 1202.41 505.00, 1201.78 506.81, 1200.72 510.55 C 1199.65 514.29, 1199.24 516.26, 1198.47 520.08 C 1197.70 523.90, 1197.46 525.87, 1196.86 529.65 C 1196.26 533.43, 1195.59 535.53, 1195.46 538.98 C 1195.33 542.43, 1195.26 544.56, 1196.23 546.91 C 1197.20 549.26, 1198.54 550.02, 1200.30 550.74 C 1202.07 551.45, 1203.62 551.20, 1205.07 550.50 C 1206.51 549.79, 1207.10 548.87, 1207.52 547.21 C 1207.95 545.55, 1207.52 544.56, 1207.19 542.20 C 1206.87 539.83, 1206.49 538.32, 1205.91 535.38 C 1205.32 532.44, 1204.78 530.74, 1204.26 527.50 C 1203.75 524.25, 1203.66 522.67, 1203.34 519.17 C 1203.02 515.67, 1202.90 513.50, 1202.66 509.99 C 1202.43 506.47, 1202.48 504.68, 1202.16 501.59 C 1201.85 498.50, 1201.83 496.88, 1201.08 494.55 C 1200.34 492.21, 1199.63 491.23, 1198.44 489.90 C 1197.24 488.58, 1196.56 488.07, 1195.10 487.92 C 1193.64 487.76, 1192.29 488.28, 1191.15 489.14" style="stroke: white; fill: white;"/><path d="M 1357.33,491.77 C 1355.92 492.39, 1355.43 493.30, 1354.70 494.95 C 1353.98 496.60, 1353.86 497.67, 1353.72 500.00 C 1353.57 502.33, 1353.67 503.72, 1353.98 506.61 C 1354.28 509.49, 1354.80 511.17, 1355.25 514.43 C 1355.69 517.68, 1355.83 519.54, 1356.20 522.87 C 1356.56 526.20, 1356.82 527.83, 1357.06 531.09 C 1357.31 534.35, 1357.27 536.02, 1357.43 539.16 C 1357.59 542.29, 1357.50 544.15, 1357.85 546.76 C 1358.20 549.38, 1358.48 550.50, 1359.17 552.24 C 1359.86 553.99, 1360.51 554.61, 1361.30 555.49 C 1362.10 556.37, 1362.33 556.42, 1363.14 556.66 C 1363.95 556.89, 1364.55 557.02, 1365.36 556.67 C 1366.18 556.31, 1366.62 556.01, 1367.21 554.89 C 1367.80 553.76, 1368.09 552.88, 1368.30 551.03 C 1368.51 549.18, 1368.49 548.19, 1368.27 545.64 C 1368.06 543.09, 1367.64 541.35, 1367.25 538.28 C 1366.86 535.21, 1366.62 533.52, 1366.31 530.29 C 1365.99 527.06, 1365.82 525.43, 1365.67 522.14 C 1365.52 518.85, 1365.49 517.06, 1365.57 513.84 C 1365.64 510.61, 1366.02 508.90, 1366.04 506.02 C 1366.07 503.14, 1366.05 501.71, 1365.69 499.45 C 1365.34 497.20, 1365.06 496.27, 1364.27 494.75 C 1363.48 493.23, 1363.13 492.44, 1361.75 491.85 C 1360.36 491.25, 1358.74 491.15, 1357.33 491.77" style="stroke: white; fill: white;"/><path d="M 1350.96,444.77 C 1351.41 446.24, 1351.93 446.34, 1352.59 446.95 C 1353.26 447.55, 1353.46 448.18, 1354.29 447.81 C 1355.12 447.44, 1356.31 446.87, 1356.76 445.08 C 1357.22 443.30, 1357.06 440.65, 1356.58 438.90 C 1356.09 437.14, 1355.21 436.69, 1354.35 436.31 C 1353.48 435.93, 1353.05 436.33, 1352.25 436.99 C 1351.44 437.65, 1350.58 438.05, 1350.32 439.61 C 1350.06 441.16, 1350.50 443.30, 1350.96 444.77" style="stroke: white; fill: white;"/><path d="M 1416.63,428.60 C 1415.44 429.41, 1415.17 430.04, 1414.64 431.74 C 1414.11 433.44, 1413.73 434.63, 1413.98 437.11 C 1414.24 439.58, 1415.35 440.88, 1415.91 444.10 C 1416.48 447.32, 1416.56 449.21, 1416.79 453.20 C 1417.02 457.18, 1417.03 459.44, 1417.05 464.02 C 1417.07 468.59, 1416.99 471.04, 1416.91 476.05 C 1416.84 481.07, 1416.63 483.75, 1416.68 489.10 C 1416.72 494.45, 1416.91 497.32, 1417.14 502.80 C 1417.36 508.28, 1417.46 511.09, 1417.80 516.49 C 1418.13 521.89, 1418.29 524.59, 1418.82 529.80 C 1419.35 535.02, 1419.76 537.69, 1420.44 542.57 C 1421.13 547.44, 1421.50 549.93, 1422.25 554.17 C 1423.01 558.42, 1423.14 560.39, 1424.21 563.79 C 1425.28 567.19, 1426.10 569.91, 1427.61 571.16 C 1429.12 572.42, 1431.08 571.86, 1431.78 570.05 C 1432.48 568.24, 1431.68 565.56, 1431.09 562.12 C 1430.51 558.68, 1429.78 556.95, 1428.85 552.84 C 1427.93 548.74, 1427.33 546.33, 1426.47 541.59 C 1425.60 536.86, 1425.13 534.26, 1424.51 529.17 C 1423.90 524.08, 1423.75 521.45, 1423.40 516.14 C 1423.06 510.82, 1422.97 508.00, 1422.81 502.60 C 1422.64 497.19, 1422.48 494.38, 1422.57 489.12 C 1422.65 483.86, 1422.92 481.26, 1423.22 476.29 C 1423.52 471.32, 1423.71 468.84, 1424.06 464.26 C 1424.41 459.69, 1424.54 457.52, 1424.96 453.39 C 1425.39 449.26, 1425.92 447.22, 1426.16 443.63 C 1426.41 440.03, 1426.66 438.11, 1426.19 435.40 C 1425.72 432.69, 1424.94 431.60, 1423.82 430.06 C 1422.69 428.52, 1422.02 428.00, 1420.58 427.71 C 1419.15 427.42, 1417.82 427.79, 1416.63 428.60" style="stroke: white; fill: white;"/><path d="M 1401.78,516.91 C 1402.79 517.89, 1403.27 518.15, 1405.54 518.18 C 1407.82 518.22, 1409.24 517.85, 1413.13 517.07 C 1417.03 516.29, 1419.80 515.28, 1425.02 514.29 C 1430.24 513.29, 1433.34 512.86, 1439.23 512.11 C 1445.11 511.35, 1448.42 510.92, 1454.43 510.53 C 1460.44 510.13, 1463.77 510.17, 1469.26 510.13 C 1474.75 510.09, 1477.54 510.15, 1481.87 510.31 C 1486.20 510.47, 1488.07 511.20, 1490.90 510.93 C 1493.73 510.66, 1494.98 509.95, 1496.01 508.96 C 1497.04 507.97, 1497.05 507.01, 1496.06 505.98 C 1495.08 504.95, 1493.94 504.26, 1491.10 503.83 C 1488.26 503.39, 1486.28 503.67, 1481.88 503.82 C 1477.48 503.96, 1474.66 504.28, 1469.10 504.56 C 1463.54 504.83, 1460.18 504.84, 1454.09 505.21 C 1448.00 505.58, 1444.64 505.97, 1438.65 506.42 C 1432.66 506.86, 1429.49 507.05, 1424.13 507.43 C 1418.77 507.82, 1415.92 507.94, 1411.84 508.34 C 1407.75 508.75, 1405.99 508.47, 1403.71 509.46 C 1401.43 510.45, 1400.85 511.79, 1400.46 513.28 C 1400.07 514.77, 1400.76 515.93, 1401.78 516.91" style="stroke: white; fill: white;"/></svg>